<svg width="189" height="151" viewBox="0 0 189 151" fill="none" xmlns="http://www.w3.org/2000/svg">
<path d="M0 141.562C0 146.774 4.23183 151 9.45 151H28.35C33.5682 151 37.8 146.774 37.8 141.562V47.1875H0V141.562ZM171.033 84.9375C176.307 79.8088 179.55 73.9251 179.55 67.5637C179.55 51.9741 167.209 39.9029 153.586 31.3178C141.201 23.5112 129.775 14.2801 120.523 2.94037L118.125 0L115.727 2.94037C106.475 14.2801 95.0522 23.5141 82.6639 31.3178C69.0411 39.9029 56.7 51.9741 56.7 67.5637C56.7 73.9251 59.9425 79.8088 65.2168 84.9375H171.033ZM179.55 94.375H56.7C51.4818 94.375 47.25 98.6012 47.25 103.812V141.562C47.25 146.774 51.4818 151 56.7 151H66.15V132.125C66.15 126.914 70.3818 122.688 75.6 122.688C80.8182 122.688 85.05 126.914 85.05 132.125V151H103.95V129.766C103.95 115.609 118.125 108.531 118.125 108.531C118.125 108.531 132.3 115.609 132.3 129.766V151H151.2V132.125C151.2 126.914 155.432 122.688 160.65 122.688C165.868 122.688 170.1 126.914 170.1 132.125V151H179.55C184.768 151 189 146.774 189 141.562V103.812C189 98.6012 184.768 94.375 179.55 94.375ZM18.9 0C18.9 0 0 9.4375 0 28.3125V37.75H37.8V28.3125C37.8 9.4375 18.9 0 18.9 0Z" fill="#00FF19"/>
<path d="M0 141.562C0 146.774 4.23183 151 9.45 151H28.35C33.5682 151 37.8 146.774 37.8 141.562V47.1875H0V141.562ZM171.033 84.9375C176.307 79.8088 179.55 73.9251 179.55 67.5637C179.55 51.9741 167.209 39.9029 153.586 31.3178C141.201 23.5112 129.775 14.2801 120.523 2.94037L118.125 0L115.727 2.94037C106.475 14.2801 95.0522 23.5141 82.6639 31.3178C69.0411 39.9029 56.7 51.9741 56.7 67.5637C56.7 73.9251 59.9425 79.8088 65.2168 84.9375H171.033ZM179.55 94.375H56.7C51.4818 94.375 47.25 98.6012 47.25 103.812V141.562C47.25 146.774 51.4818 151 56.7 151H66.15V132.125C66.15 126.914 70.3818 122.688 75.6 122.688C80.8182 122.688 85.05 126.914 85.05 132.125V151H103.95V129.766C103.95 115.609 118.125 108.531 118.125 108.531C118.125 108.531 132.3 115.609 132.3 129.766V151H151.2V132.125C151.2 126.914 155.432 122.688 160.65 122.688C165.868 122.688 170.1 126.914 170.1 132.125V151H179.55C184.768 151 189 146.774 189 141.562V103.812C189 98.6012 184.768 94.375 179.55 94.375ZM18.9 0C18.9 0 0 9.4375 0 28.3125V37.75H37.8V28.3125C37.8 9.4375 18.9 0 18.9 0Z" fill="url(#paint0_linear)"/>
<defs>
<linearGradient id="paint0_linear" x1="94.5" y1="0" x2="94.5" y2="151" gradientUnits="userSpaceOnUse">
<stop stop-color="#49FF71"/>
<stop offset="1" stop-color="white" stop-opacity="0"/>
</linearGradient>
</defs>
</svg>
