<svg width="189" height="186" viewBox="0 0 189 186" fill="none" xmlns="http://www.w3.org/2000/svg">
<path d="M62.8346 34.4598L59.5468 74.9868L24.3632 95.1915C18.0517 98.8098 18.6375 108.149 25.366 110.973L62.8059 126.706L71.1438 166.523C72.6557 173.719 81.7292 175.973 86.4135 170.478L112.864 139.678L153.221 144.097C160.385 144.882 165.481 137.063 161.669 130.776L140.552 96.0045L157.141 58.9359C160.124 52.2764 154.171 45.0571 147.091 46.7273L107.595 56.0128L77.5047 28.6667C72.1257 23.7984 63.4313 27.1428 62.8346 34.4598Z" fill="#00FFFF"/>
<path d="M62.8346 34.4598L59.5468 74.9868L24.3632 95.1915C18.0517 98.8098 18.6375 108.149 25.366 110.973L62.8059 126.706L71.1438 166.523C72.6557 173.719 81.7292 175.973 86.4135 170.478L112.864 139.678L153.221 144.097C160.385 144.882 165.481 137.063 161.669 130.776L140.552 96.0045L157.141 58.9359C160.124 52.2764 154.171 45.0571 147.091 46.7273L107.595 56.0128L77.5047 28.6667C72.1257 23.7984 63.4313 27.1428 62.8346 34.4598Z" fill="url(#paint0_linear)"/>
<defs>
<linearGradient id="paint0_linear" x1="68.3666" y1="26.9975" x2="120.197" y2="158.249" gradientUnits="userSpaceOnUse">
<stop stop-color="#71EDFE"/>
<stop offset="1" stop-color="white" stop-opacity="0"/>
</linearGradient>
</defs>
</svg>
