<svg width="361" height="367" viewBox="0 0 361 367" fill="none" xmlns="http://www.w3.org/2000/svg">
<path d="M277.116 283.321C309.668 257.686 327.359 218.986 327.327 178.424C327.323 172.424 319.882 169.512 316.077 173.943C272.801 224.331 193.867 220.836 151.851 167.482C127.648 136.748 121.33 95.9348 135.25 60.3183C137.396 54.8281 131.471 49.3699 126.252 52.0778C118.938 55.8761 112.004 60.3493 105.535 65.4418C47.2809 111.317 38.3748 197.281 85.7905 257.491C133.146 317.624 218.788 329.255 277.116 283.321Z" fill="#EBFF00"/>
<path d="M277.116 283.321C309.668 257.686 327.359 218.986 327.327 178.424C327.323 172.424 319.882 169.512 316.077 173.943C272.801 224.331 193.867 220.836 151.851 167.482C127.648 136.748 121.33 95.9348 135.25 60.3183C137.396 54.8281 131.471 49.3699 126.252 52.0778C118.938 55.8761 112.004 60.3493 105.535 65.4418C47.2809 111.317 38.3748 197.281 85.7905 257.491C133.146 317.624 218.788 329.255 277.116 283.321Z" fill="url(#paint0_linear)"/>
<defs>
<linearGradient id="paint0_linear" x1="94.3175" y1="74.2757" x2="265.899" y2="292.155" gradientUnits="userSpaceOnUse">
<stop stop-color="#FFE600"/>
<stop offset="1" stop-color="white" stop-opacity="0"/>
</linearGradient>
</defs>
</svg>
