<svg width="180" height="176" viewBox="0 0 180 176" fill="none" xmlns="http://www.w3.org/2000/svg">
<path d="M99.6022 22.2503L72.5685 52.6218L32.3131 47.5599C25.0956 46.6469 19.9385 54.4547 23.6086 60.7618L44.02 95.8709L26.6942 132.678C23.5674 139.333 29.4531 146.597 36.5016 145.032L76.1666 136.376L105.722 164.21C110.968 169.152 119.745 165.979 120.489 158.664L124.574 118.189L160.143 98.589C166.535 95.0698 166.131 85.7213 159.473 82.79L122.352 66.4145L114.802 26.4615C113.44 19.3355 104.485 16.7688 99.6022 22.2503Z" fill="#EBFF00"/>
<path d="M99.6022 22.2503L72.5685 52.6218L32.3131 47.5599C25.0956 46.6469 19.9385 54.4547 23.6086 60.7618L44.02 95.8709L26.6942 132.678C23.5674 139.333 29.4531 146.597 36.5016 145.032L76.1666 136.376L105.722 164.21C110.968 169.152 119.745 165.979 120.489 158.664L124.574 118.189L160.143 98.589C166.535 95.0698 166.131 85.7213 159.473 82.79L122.352 66.4145L114.802 26.4615C113.44 19.3355 104.485 16.7688 99.6022 22.2503Z" fill="url(#paint0_linear)"/>
<defs>
<linearGradient id="paint0_linear" x1="108.513" y1="19.6253" x2="70.8358" y2="155.617" gradientUnits="userSpaceOnUse">
<stop stop-color="#FEF871"/>
<stop offset="1" stop-color="white" stop-opacity="0"/>
</linearGradient>
</defs>
</svg>
