<svg width="165" height="180" viewBox="0 0 165 180" fill="none" xmlns="http://www.w3.org/2000/svg">
<path d="M154.519 104.4L132.329 7.45715C131.262 2.79643 127.823 0.640695 123.158 1.70851L27.9904 23.492C12.1292 27.1225 2.77373 42.0167 6.40092 57.8631L27.7373 151.077C31.3645 166.924 46.2674 176.265 62.1286 172.635L157.296 150.851C161.028 149.997 164.12 146.346 163.053 141.686L161.986 137.025C161.56 135.161 160.2 133.51 157.907 132.073C155.907 127.626 152.92 114.576 153 110.634C154.652 109.274 155.159 107.196 154.519 104.4V104.4ZM97.5076 52.2818C97.6018 51.8893 97.8994 51.6342 98.2376 51.5568C98.5758 51.4794 98.9547 51.5796 99.2103 51.8921L103.98 57.7437L111.511 57.1327C112.316 57.0681 112.847 57.9521 112.41 58.6315L108.311 64.9743L111.216 71.9396C111.461 72.5302 111.088 73.1398 110.534 73.2666C110.389 73.3 110.229 73.2997 110.066 73.2574L102.763 71.3269L97.027 76.2419C96.8985 76.351 96.7549 76.4207 96.6091 76.4541C96.0551 76.5809 95.4542 76.1942 95.4185 75.5555L95.0039 68.0202L88.5539 64.092C87.8623 63.6709 87.9556 62.6441 88.711 62.3516L95.7552 59.6264L97.5076 52.2818V52.2818ZM76.0275 36.0431C80.0132 35.1307 84.1416 34.9491 88.295 35.5066C88.5842 35.4407 88.8843 35.4389 89.1742 35.5015C89.4641 35.5641 89.7367 35.6896 89.9727 35.869C90.2087 36.0484 90.4024 36.2774 90.5401 36.5399C90.6778 36.8023 90.7562 37.0918 90.7696 37.3878C90.7831 37.6839 90.7313 37.9793 90.618 38.2533C90.5046 38.5272 90.3325 38.7729 90.1138 38.9732C89.895 39.1734 89.6349 39.3232 89.3519 39.4121C89.0689 39.5009 88.7698 39.5266 88.4759 39.4873C88.2805 39.532 87.5609 39.6323 87.2577 39.7017C72.0058 43.1928 62.4368 58.4271 65.9246 73.6648C69.4118 88.8995 84.6557 98.4572 99.9075 94.9661C100.208 94.8974 100.908 94.6727 101.098 94.6293C102.244 94.3671 103.29 95.0902 103.532 96.1505C103.731 97.0186 103.334 97.885 102.613 98.3289C99.1274 100.62 95.3501 102.242 91.3848 103.149C72.868 107.391 54.357 95.785 50.1224 77.2849C45.8871 58.7819 57.5072 40.2823 76.0275 36.0431V36.0431ZM140.9 134.985L57.8614 153.992C52.2633 155.273 47.6778 152.399 46.3976 146.806C45.1174 141.213 48.929 136.417 53.5941 135.349L136.632 116.342L140.9 134.985Z" fill="#FF9C40"/>
<path d="M154.519 104.4L132.329 7.45715C131.262 2.79643 127.823 0.640695 123.158 1.70851L27.9904 23.492C12.1292 27.1225 2.77373 42.0167 6.40092 57.8631L27.7373 151.077C31.3645 166.924 46.2674 176.265 62.1286 172.635L157.296 150.851C161.028 149.997 164.12 146.346 163.053 141.686L161.986 137.025C161.56 135.161 160.2 133.51 157.907 132.073C155.907 127.626 152.92 114.576 153 110.634C154.652 109.274 155.159 107.196 154.519 104.4V104.4ZM97.5076 52.2818C97.6018 51.8893 97.8994 51.6342 98.2376 51.5568C98.5758 51.4794 98.9547 51.5796 99.2103 51.8921L103.98 57.7437L111.511 57.1327C112.316 57.0681 112.847 57.9521 112.41 58.6315L108.311 64.9743L111.216 71.9396C111.461 72.5302 111.088 73.1398 110.534 73.2666C110.389 73.3 110.229 73.2997 110.066 73.2574L102.763 71.3269L97.027 76.2419C96.8985 76.351 96.7549 76.4207 96.6091 76.4541C96.0551 76.5809 95.4542 76.1942 95.4185 75.5555L95.0039 68.0202L88.5539 64.092C87.8623 63.6709 87.9556 62.6441 88.711 62.3516L95.7552 59.6264L97.5076 52.2818V52.2818ZM76.0275 36.0431C80.0132 35.1307 84.1416 34.9491 88.295 35.5066C88.5842 35.4407 88.8843 35.4389 89.1742 35.5015C89.4641 35.5641 89.7367 35.6896 89.9727 35.869C90.2087 36.0484 90.4024 36.2774 90.5401 36.5399C90.6778 36.8023 90.7562 37.0918 90.7696 37.3878C90.7831 37.6839 90.7313 37.9793 90.618 38.2533C90.5046 38.5272 90.3325 38.7729 90.1138 38.9732C89.895 39.1734 89.6349 39.3232 89.3519 39.4121C89.0689 39.5009 88.7698 39.5266 88.4759 39.4873C88.2805 39.532 87.5609 39.6323 87.2577 39.7017C72.0058 43.1928 62.4368 58.4271 65.9246 73.6648C69.4118 88.8995 84.6557 98.4572 99.9075 94.9661C100.208 94.8974 100.908 94.6727 101.098 94.6293C102.244 94.3671 103.29 95.0902 103.532 96.1505C103.731 97.0186 103.334 97.885 102.613 98.3289C99.1274 100.62 95.3501 102.242 91.3848 103.149C72.868 107.391 54.357 95.785 50.1224 77.2849C45.8871 58.7819 57.5072 40.2823 76.0275 36.0431V36.0431ZM140.9 134.985L57.8614 153.992C52.2633 155.273 47.6778 152.399 46.3976 146.806C45.1174 141.213 48.929 136.417 53.5941 135.349L136.632 116.342L140.9 134.985Z" fill="url(#paint0_linear)"/>
<defs>
<linearGradient id="paint0_linear" x1="65.3109" y1="14.9494" x2="99.4492" y2="164.092" gradientUnits="userSpaceOnUse">
<stop stop-color="#FFC296"/>
<stop offset="1" stop-color="white" stop-opacity="0"/>
</linearGradient>
</defs>
</svg>
