<svg width="145" height="145" viewBox="0 0 145 145" fill="none" xmlns="http://www.w3.org/2000/svg">
<path d="M115.181 105.607C115.319 102.949 113.861 100.463 111.474 99.28L99.4901 93.3406L118.793 54.393C120.835 50.2735 119.135 45.2326 115.016 43.1909C110.896 41.1492 105.855 42.8492 103.813 46.9687L91.3778 72.0599C90.8655 73.0935 89.6108 73.5166 88.5772 73.0044L84.8323 71.1483C83.7987 70.636 83.3755 69.3814 83.8878 68.3478L100.036 35.7666C102.077 31.6471 100.377 26.6062 96.2579 24.5645C92.1385 22.5228 87.0975 24.2228 85.0558 28.3423L68.908 60.9235C68.3957 61.9571 67.141 62.3802 66.1074 61.8679L62.3625 60.0118C61.3289 59.4995 60.9057 58.2449 61.418 57.2113L73.8537 32.12C75.8954 28.0006 74.1954 22.9596 70.076 20.9179C65.9565 18.8763 60.9156 20.5763 58.8739 24.6957L39.5707 63.6434L27.5868 57.7039C25.1994 56.5207 22.3388 56.8662 20.3064 58.5856C19.3099 59.4247 18.5804 60.5369 18.2078 61.7853C17.8353 63.0337 17.8359 64.3638 18.2095 65.6119L27.2269 95.7448C30.3609 106.213 38.1984 115.21 48.7423 120.436C59.2863 125.661 71.1923 126.45 81.4221 122.605L110.86 111.531C112.079 111.073 113.138 110.268 113.906 109.215C114.674 108.163 115.117 106.909 115.181 105.607ZM57.6515 102.46C47.7236 97.5393 45.6151 81.5667 45.6151 81.5667C45.6151 81.5667 59.6025 73.5715 69.5304 78.492C79.4583 83.4124 81.5668 99.385 81.5668 99.385C81.5668 99.385 67.5794 107.38 57.6515 102.46ZM66.5607 84.4839C63.252 82.8441 59.2389 84.1975 57.599 87.5061C55.9592 90.8148 57.3126 94.828 60.6212 96.4678C63.9299 98.1077 67.9431 96.7543 69.5829 93.4456C71.2227 90.1369 69.8694 86.1238 66.5607 84.4839Z" fill="#FF3838"/>
<path d="M115.181 105.607C115.319 102.949 113.861 100.463 111.474 99.28L99.4901 93.3406L118.793 54.393C120.835 50.2735 119.135 45.2326 115.016 43.1909C110.896 41.1492 105.855 42.8492 103.813 46.9687L91.3778 72.0599C90.8655 73.0935 89.6108 73.5166 88.5772 73.0044L84.8323 71.1483C83.7987 70.636 83.3755 69.3814 83.8878 68.3478L100.036 35.7666C102.077 31.6471 100.377 26.6062 96.2579 24.5645C92.1385 22.5228 87.0975 24.2228 85.0558 28.3423L68.908 60.9235C68.3957 61.9571 67.141 62.3802 66.1074 61.8679L62.3625 60.0118C61.3289 59.4995 60.9057 58.2449 61.418 57.2113L73.8537 32.12C75.8954 28.0006 74.1954 22.9596 70.076 20.9179C65.9565 18.8763 60.9156 20.5763 58.8739 24.6957L39.5707 63.6434L27.5868 57.7039C25.1994 56.5207 22.3388 56.8662 20.3064 58.5856C19.3099 59.4247 18.5804 60.5369 18.2078 61.7853C17.8353 63.0337 17.8359 64.3638 18.2095 65.6119L27.2269 95.7448C30.3609 106.213 38.1984 115.21 48.7423 120.436C59.2863 125.661 71.1923 126.45 81.4221 122.605L110.86 111.531C112.079 111.073 113.138 110.268 113.906 109.215C114.674 108.163 115.117 106.909 115.181 105.607ZM57.6515 102.46C47.7236 97.5393 45.6151 81.5667 45.6151 81.5667C45.6151 81.5667 59.6025 73.5715 69.5304 78.492C79.4583 83.4124 81.5668 99.385 81.5668 99.385C81.5668 99.385 67.5794 107.38 57.6515 102.46ZM66.5607 84.4839C63.252 82.8441 59.2389 84.1975 57.599 87.5061C55.9592 90.8148 57.3126 94.828 60.6212 96.4678C63.9299 98.1077 67.9431 96.7543 69.5829 93.4456C71.2227 90.1369 69.8694 86.1238 66.5607 84.4839Z" fill="url(#paint0_linear)"/>
<defs>
<linearGradient id="paint0_linear" x1="96.2579" y1="24.5645" x2="48.7423" y2="120.436" gradientUnits="userSpaceOnUse">
<stop stop-color="#FF7A7A"/>
<stop offset="1" stop-color="white" stop-opacity="0"/>
</linearGradient>
</defs>
</svg>
